HIERARCHY
ROOT newVegas:Hips
{
	OFFSET 0.000000 96.479958 0.000000
	CHANNELS 6 Xposition Yposition Zposition Xrotation Yrotation Zrotation
	JOINT newVegas:Pelvis
	{
		OFFSET 0.000000 0.000000 0.000000
		CHANNELS 3 Xrotation Yrotation Zrotation
		JOINT newVegas:LeftUpLeg
		{
			OFFSET 18.735201 -5.666702 -4.541200
			CHANNELS 3 Xrotation Yrotation Zrotation
			JOINT newVegas:LeftLeg
			{
				OFFSET -0.021200 -31.938179 0.493100
				CHANNELS 3 Xrotation Yrotation Zrotation
				JOINT newVegas:LeftFoot
				{
					OFFSET 0.021200 -31.938179 -4.336299
					CHANNELS 3 Xrotation Yrotation Zrotation
					JOINT newVegas:LeftToeBase
					{
						OFFSET 0.943001 -26.722000 15.023500
						CHANNELS 3 Xrotation Yrotation Zrotation
						End Site
						{
							OFFSET 0.000000 30.670183 0.000000
						}
					}
				}
				JOINT newVegas:Left_PantLeg
				{
					OFFSET 0.663870 -9.044666 -1.108900
					CHANNELS 3 Xrotation Yrotation Zrotation
					End Site
					{
						OFFSET 1.415995 20.635357 0.000000
					}
				}
			}
		}
		JOINT newVegas:RightUpLeg
		{
			OFFSET -18.735201 -5.666702 -4.541200
			CHANNELS 3 Xrotation Yrotation Zrotation
			JOINT newVegas:RightLeg
			{
				OFFSET 0.018946 -31.938133 0.493100
				CHANNELS 3 Xrotation Yrotation Zrotation
				JOINT newVegas:RightFoot
				{
					OFFSET -0.018946 -31.938126 -4.336299
					CHANNELS 3 Xrotation Yrotation Zrotation
					JOINT newVegas:RightToeBase
					{
						OFFSET -0.943001 -26.722004 15.023500
						CHANNELS 3 Xrotation Yrotation Zrotation
						End Site
						{
							OFFSET 0.000000 30.670187 0.000000
						}
					}
				}
				JOINT newVegas:Right_PantLeg
				{
					OFFSET -0.661674 -9.044716 -1.108900
					CHANNELS 3 Xrotation Yrotation Zrotation
					End Site
					{
						OFFSET -1.415958 20.635269 0.000000
					}
				}
			}
		}
	}
	JOINT newVegas:Spine
	{
		OFFSET 0.000000 10.199997 -0.299500
		CHANNELS 3 Xrotation Yrotation Zrotation
		JOINT newVegas:Spine1
		{
			OFFSET 0.000000 11.900002 -1.516600
			CHANNELS 3 Xrotation Yrotation Zrotation
			JOINT newVegas:Spine2
			{
				OFFSET 0.000000 13.600006 -2.842500
				CHANNELS 3 Xrotation Yrotation Zrotation
				JOINT newVegas:Neck
				{
					OFFSET 0.000000 9.624100 -2.890100
					CHANNELS 3 Xrotation Yrotation Zrotation
					JOINT newVegas:Head
					{
						OFFSET 0.000000 14.068802 -1.351900
						CHANNELS 3 Xrotation Yrotation Zrotation
						JOINT newVegas:Hair_Back
						{
							OFFSET 0.000000 3.231903 -17.524799
							CHANNELS 3 Xrotation Yrotation Zrotation
							End Site
							{
								OFFSET 0.000000 19.849884 0.000000
							}
						}
						JOINT newVegas:Hair_Front
						{
							OFFSET 0.000000 31.260406 4.573800
							CHANNELS 3 Xrotation Yrotation Zrotation
							JOINT newVegas:Hair_Front1
							{
								OFFSET 0.000000 2.284103 11.993300
								CHANNELS 3 Xrotation Yrotation Zrotation
								JOINT newVegas:Hair_Front2
								{
									OFFSET 0.000000 2.284103 11.993300
									CHANNELS 3 Xrotation Yrotation Zrotation
									End Site
									{
										OFFSET 0.000000 12.208862 0.000000
									}
								}
							}
						}
						JOINT newVegas:Jowel
						{
							OFFSET 0.000000 -7.458206 6.864100
							CHANNELS 3 Xrotation Yrotation Zrotation
							End Site
							{
								OFFSET 0.000000 19.849884 0.000000
							}
						}
					}
				}
				JOINT newVegas:LeftShoulder
				{
					OFFSET 15.263000 10.923401 -0.547700
					CHANNELS 3 Xrotation Yrotation Zrotation
					JOINT newVegas:LeftArm
					{
						OFFSET 25.438599 -2.830597 -13.032500
						CHANNELS 3 Xrotation Yrotation Zrotation
						JOINT newVegas:LeftForeArm
						{
							OFFSET 29.960503 0.000000 0.000000
							CHANNELS 3 Xrotation Yrotation Zrotation
							JOINT newVegas:LeftHand
							{
								OFFSET 27.849251 0.000000 0.000000
								CHANNELS 3 Xrotation Yrotation Zrotation
								JOINT newVegas:LeftHandThumb1
								{
									OFFSET 4.487587 -3.305161 6.305391
									CHANNELS 3 Xrotation Yrotation Zrotation
									JOINT newVegas:LeftHandThumb2
									{
										OFFSET 5.480453 -3.164139 3.164143
										CHANNELS 3 Xrotation Yrotation Zrotation
										JOINT newVegas:LeftHandThumb3
										{
											OFFSET 5.159721 -2.978973 2.978967
											CHANNELS 3 Xrotation Yrotation Zrotation
											End Site
											{
												OFFSET 2.494507 5.926697 1.738678
											}
										}
									}
								}
								JOINT newVegas:LeftHandIndex1
								{
									OFFSET 18.578728 -0.527832 5.208049
									CHANNELS 3 Xrotation Yrotation Zrotation
									JOINT newVegas:LeftHandIndex2
									{
										OFFSET 3.192009 0.000000 0.000000
										CHANNELS 3 Xrotation Yrotation Zrotation
										JOINT newVegas:LeftHandIndex3
										{
											OFFSET 3.835129 0.000000 0.000000
											CHANNELS 3 Xrotation Yrotation Zrotation
											End Site
											{
												OFFSET -0.034599 3.816971 0.371180
											}
										}
									}
								}
								JOINT newVegas:LeftHandMiddle1
								{
									OFFSET 18.476105 0.000000 0.000000
									CHANNELS 3 Xrotation Yrotation Zrotation
									JOINT newVegas:LeftHandMiddle2
									{
										OFFSET 3.324875 0.000000 0.000000
										CHANNELS 3 Xrotation Yrotation Zrotation
										JOINT newVegas:LeftHandMiddle3
										{
											OFFSET 4.596550 0.000000 0.000000
											CHANNELS 3 Xrotation Yrotation Zrotation
											End Site
											{
												OFFSET 0.057701 4.578827 0.399218
											}
										}
									}
								}
								JOINT newVegas:LeftHandRing1
								{
									OFFSET 17.732719 0.121887 -4.201567
									CHANNELS 3 Xrotation Yrotation Zrotation
									JOINT newVegas:LeftHandRing2
									{
										OFFSET 2.733170 0.000000 0.000000
										CHANNELS 3 Xrotation Yrotation Zrotation
										JOINT newVegas:LeftHandRing3
										{
											OFFSET 3.178268 0.000000 0.000000
											CHANNELS 3 Xrotation Yrotation Zrotation
											End Site
											{
												OFFSET 0.119102 3.170624 0.185394
											}
										}
									}
								}
								JOINT newVegas:LeftHandPinky1
								{
									OFFSET 15.989624 -0.606689 -7.535461
									CHANNELS 3 Xrotation Yrotation Zrotation
									JOINT newVegas:LeftHandPinky2
									{
										OFFSET 2.538986 0.000000 0.000000
										CHANNELS 3 Xrotation Yrotation Zrotation
										JOINT newVegas:LeftHandPinky3
										{
											OFFSET 2.593102 0.000000 0.000000
											CHANNELS 3 Xrotation Yrotation Zrotation
											End Site
											{
												OFFSET -0.150902 2.584198 0.152708
											}
										}
									}
								}
							}
							JOINT newVegas:Left_Sleeve
							{
								OFFSET 0.267448 -0.649796 0.577675
								CHANNELS 3 Xrotation Yrotation Zrotation
								End Site
								{
									OFFSET 0.000000 15.991241 0.000000
								}
							}
							JOINT newVegas:Left_CapeC
							{
								OFFSET 15.715958 -8.608795 -6.935905
								CHANNELS 3 Xrotation Yrotation Zrotation
								JOINT newVegas:Left_CapeC1
								{
									OFFSET 0.000000 -8.688499 0.000000
									CHANNELS 3 Xrotation Yrotation Zrotation
									End Site
									{
										OFFSET 0.000000 8.688499 0.000000
									}
								}
							}
						}
						JOINT newVegas:Left_CapeB
						{
							OFFSET 26.118385 -8.608795 -7.079235
							CHANNELS 3 Xrotation Yrotation Zrotation
							JOINT newVegas:Left_CapeB1
							{
								OFFSET 0.000000 -8.688499 0.000000
								CHANNELS 3 Xrotation Yrotation Zrotation
								End Site
								{
									OFFSET 0.000000 8.688499 0.000000
								}
							}
						}
						JOINT newVegas:Left_CapeA
						{
							OFFSET 5.115639 -8.608795 -10.395809
							CHANNELS 3 Xrotation Yrotation Zrotation
							JOINT newVegas:Left_CapeA1
							{
								OFFSET 0.000000 -8.688499 0.000000
								CHANNELS 3 Xrotation Yrotation Zrotation
								End Site
								{
									OFFSET 0.000000 8.688499 0.000000
								}
							}
						}
					}
				}
				JOINT newVegas:RightShoulder
				{
					OFFSET -15.263000 10.923401 -0.547700
					CHANNELS 3 Xrotation Yrotation Zrotation
					JOINT newVegas:RightArm
					{
						OFFSET -25.438599 -2.830597 -13.032500
						CHANNELS 3 Xrotation Yrotation Zrotation
						JOINT newVegas:RightForeArm
						{
							OFFSET -29.960503 0.000000 0.000000
							CHANNELS 3 Xrotation Yrotation Zrotation
							JOINT newVegas:RightHand
							{
								OFFSET -27.849251 0.000000 0.000000
								CHANNELS 3 Xrotation Yrotation Zrotation
								JOINT newVegas:RightHandThumb1
								{
									OFFSET -4.487587 -3.305161 6.305391
									CHANNELS 3 Xrotation Yrotation Zrotation
									JOINT newVegas:RightHandThumb2
									{
										OFFSET -5.480453 -3.164139 3.164143
										CHANNELS 3 Xrotation Yrotation Zrotation
										JOINT newVegas:RightHandThumb3
										{
											OFFSET -5.159721 -2.978973 2.978967
											CHANNELS 3 Xrotation Yrotation Zrotation
											End Site
											{
												OFFSET -2.494507 5.926697 1.738678
											}
										}
									}
								}
								JOINT newVegas:RightHandIndex1
								{
									OFFSET -18.578728 -0.527832 5.208049
									CHANNELS 3 Xrotation Yrotation Zrotation
									JOINT newVegas:RightHandIndex2
									{
										OFFSET -3.192009 0.000000 0.000000
										CHANNELS 3 Xrotation Yrotation Zrotation
										JOINT newVegas:RightHandIndex3
										{
											OFFSET -3.835129 0.000000 0.000000
											CHANNELS 3 Xrotation Yrotation Zrotation
											End Site
											{
												OFFSET 0.034599 3.816971 0.371180
											}
										}
									}
								}
								JOINT newVegas:RightHandMiddle1
								{
									OFFSET -18.476105 0.000000 0.000000
									CHANNELS 3 Xrotation Yrotation Zrotation
									JOINT newVegas:RightHandMiddle2
									{
										OFFSET -3.324875 0.000000 0.000000
										CHANNELS 3 Xrotation Yrotation Zrotation
										JOINT newVegas:RightHandMiddle3
										{
											OFFSET -4.596550 0.000000 0.000000
											CHANNELS 3 Xrotation Yrotation Zrotation
											End Site
											{
												OFFSET -0.057701 4.578827 0.399218
											}
										}
									}
								}
								JOINT newVegas:RightHandRing1
								{
									OFFSET -17.732719 0.121887 -4.201567
									CHANNELS 3 Xrotation Yrotation Zrotation
									JOINT newVegas:RightHandRing2
									{
										OFFSET -2.733170 0.000000 0.000000
										CHANNELS 3 Xrotation Yrotation Zrotation
										JOINT newVegas:RightHandRing3
										{
											OFFSET -3.178268 0.000000 0.000000
											CHANNELS 3 Xrotation Yrotation Zrotation
											End Site
											{
												OFFSET -0.119102 3.170624 0.185394
											}
										}
									}
								}
								JOINT newVegas:RightHandPinky1
								{
									OFFSET -15.989624 -0.606689 -7.535461
									CHANNELS 3 Xrotation Yrotation Zrotation
									JOINT newVegas:RightHandPinky2
									{
										OFFSET -2.538986 0.000000 0.000000
										CHANNELS 3 Xrotation Yrotation Zrotation
										JOINT newVegas:RightHandPinky3
										{
											OFFSET -2.593102 0.000000 0.000000
											CHANNELS 3 Xrotation Yrotation Zrotation
											End Site
											{
												OFFSET 0.150902 2.584198 0.152708
											}
										}
									}
								}
							}
							JOINT newVegas:Right_CapeC
							{
								OFFSET -15.715958 -8.608795 -6.935905
								CHANNELS 3 Xrotation Yrotation Zrotation
								JOINT newVegas:Right_CapeC1
								{
									OFFSET 0.000000 -8.688499 0.000000
									CHANNELS 3 Xrotation Yrotation Zrotation
									End Site
									{
										OFFSET 0.000000 8.688499 0.000000
									}
								}
							}
							JOINT newVegas:Right_Sleeve
							{
								OFFSET -0.267448 -0.649994 0.577675
								CHANNELS 3 Xrotation Yrotation Zrotation
								End Site
								{
									OFFSET 0.000000 15.991302 0.000000
								}
							}
						}
						JOINT newVegas:Right_CapeA
						{
							OFFSET -5.115540 -8.608795 -10.395824
							CHANNELS 3 Xrotation Yrotation Zrotation
							JOINT newVegas:Right_CapeA1
							{
								OFFSET 0.000000 -8.688499 0.000000
								CHANNELS 3 Xrotation Yrotation Zrotation
								End Site
								{
									OFFSET 0.000000 8.688499 0.000000
								}
							}
						}
						JOINT newVegas:Right_CapeB
						{
							OFFSET -26.118187 -8.608795 -7.079266
							CHANNELS 3 Xrotation Yrotation Zrotation
							JOINT newVegas:Right_CapeB1
							{
								OFFSET 0.000000 -8.688499 0.000000
								CHANNELS 3 Xrotation Yrotation Zrotation
								End Site
								{
									OFFSET 0.000000 8.688499 0.000000
								}
							}
						}
					}
				}
				JOINT newVegas:Left_Collar
				{
					OFFSET 18.625099 8.655502 8.828100
					CHANNELS 3 Xrotation Yrotation Zrotation
					JOINT newVegas:Left_Collar1
					{
						OFFSET 14.783401 10.540405 -1.259500
						CHANNELS 3 Xrotation Yrotation Zrotation
						End Site
						{
							OFFSET 0.000000 18.199875 0.000000
						}
					}
				}
				JOINT newVegas:Collar_Back
				{
					OFFSET 0.000000 15.630707 -20.132601
					CHANNELS 3 Xrotation Yrotation Zrotation
					End Site
					{
						OFFSET 0.000000 22.523010 0.000000
					}
				}
				JOINT newVegas:Left_Peck
				{
					OFFSET 17.239599 -5.132599 25.482599
					CHANNELS 3 Xrotation Yrotation Zrotation
					End Site
					{
						OFFSET 0.000000 22.523010 0.000000
					}
				}
				JOINT newVegas:Right_Peck
				{
					OFFSET -17.239599 -5.132202 25.482599
					CHANNELS 3 Xrotation Yrotation Zrotation
					End Site
					{
						OFFSET 0.000000 22.523010 0.000000
					}
				}
				JOINT newVegas:Right_Collar
				{
					OFFSET -18.625099 8.655792 8.828100
					CHANNELS 3 Xrotation Yrotation Zrotation
					JOINT newVegas:Right_Collar1
					{
						OFFSET -14.783401 10.539993 -1.259500
						CHANNELS 3 Xrotation Yrotation Zrotation
						End Site
						{
							OFFSET 0.000000 18.199631 0.000000
						}
					}
				}
			}
		}
		JOINT newVegas:Belly
		{
			OFFSET 0.000000 -6.540398 9.014299
			CHANNELS 3 Xrotation Yrotation Zrotation
			End Site
			{
				OFFSET 0.000000 11.566666 0.000000
			}
		}
	}
	JOINT newVegas:ElvisFacialAnim_Joint
	{
		OFFSET 1.000000 -95.330101 -8.825800
		CHANNELS 3 Xrotation Yrotation Zrotation
		End Site
		{
			OFFSET 0.000000 35.315800 0.000000
		}
	}
}
MOTION
Frames: 4
Frame Time: 0.033333
7.816307 94.478447 4.589385 -4.485468 -12.395751 0.742789 -0.000000 -0.000001 -0.000000 -9.215523 11.447076 0.876414 20.980980 9.833940 0.597819 -6.918181 7.048115 -1.592512 0.000000 0.000002 0.000000 0.000001 -0.000001 -0.000000 -9.933971 -9.676279 -12.250418 23.208892 -0.427377 -2.034816 -8.873632 -2.219736 9.636836 -0.000000 0.000002 -0.000000 0.000000 0.000000 -0.000000 4.522164 0.987078 -4.659145 2.324164 0.484517 3.204344 2.252697 0.581464 3.188589 1.390125 0.114467 -1.446710 1.390116 0.114469 -1.446711 -0.000000 -0.000001 0.000000 1.390054 0.114468 -1.446708 1.390198 0.114468 -1.446709 -0.000000 -0.000000 -0.000000 -0.000000 -0.000001 0.000000 1.047273 -18.924231 -12.528961 1.941192 -18.722995 -69.747412 0.000004 -1.285137 -0.000003 -31.364160 -2.386608 -4.007358 0.200203 3.618989 4.936789 12.189258 26.075664 16.857740 0.000001 -0.000004 -0.000008 0.651469 -0.023631 -10.772007 0.277771 1.784216 -17.696574 0.000000 -0.000001 -0.000001 0.013540 3.098168 -17.453614 0.268668 1.755431 -17.401736 -0.000001 -0.000001 -0.000002 0.492324 4.561405 -20.920120 0.326285 1.929580 -19.193498 0.000001 -0.000001 -0.000000 1.132361 6.035192 -26.407765 0.264691 1.742667 -17.271156 0.000001 -0.000004 0.000004 0.000002 -0.000000 -0.000000 0.000002 -0.000000 -0.000000 0.000001 0.000000 0.000000 -0.000003 0.000000 -0.000000 -0.000002 0.000000 0.000001 -0.000003 0.000000 -0.000000 -0.000004 0.000000 -0.000000 1.522325 15.607045 13.130419 11.654772 29.208577 56.795762 0.000001 7.961302 -0.000010 -23.383118 3.916517 2.507818 -1.606839 -0.454276 -3.362026 13.688269 -32.459934 -15.880169 0.000000 -0.000002 0.000003 -0.092848 0.412398 11.871306 0.227796 -1.440124 17.975569 0.000001 0.000002 0.000003 -0.111693 -2.516506 17.855621 0.189070 -1.314832 16.364903 -0.000002 -0.000001 -0.000001 0.379990 -4.012304 23.120605 0.304292 -1.657394 20.805480 0.000002 -0.000001 0.000000 0.811725 -4.983442 30.706280 0.218194 -1.410192 17.589521 0.000002 0.000003 0.000001 -0.000001 0.000000 -0.000000 -0.000001 -0.000000 0.000000 -0.000001 0.000000 -0.000000 0.000005 -0.000001 -0.000001 0.000005 -0.000001 -0.000000 0.000005 -0.000001 -0.000001 0.000005 -0.000001 -0.000000 -0.000000 -0.000000 -0.000001 -0.000000 -0.000000 -0.000001 -0.000000 -0.000000 -0.000001 -0.000000 -0.000000 -0.000001 -0.000000 -0.000000 -0.000001 -0.000000 -0.000000 -0.000001 -0.000000 -0.000000 -0.000001 -0.000000 -0.000000 -0.000000 -0.000000 -0.000001 -0.000000 
7.995932 94.593361 4.751874 -4.483404 -12.733351 0.587239 0.000000 -0.000000 -0.000000 -8.707458 11.324876 0.679714 20.419602 9.847254 0.674299 -6.919046 7.532833 -1.479440 -0.000000 0.000001 -0.000000 -0.000000 -0.000000 0.000000 -9.337153 -9.613666 -12.090651 21.954882 -0.304341 -2.148508 -8.206931 -2.160702 9.841575 -0.000000 -0.000000 0.000000 0.000000 -0.000003 -0.000001 4.500850 0.957017 -4.940792 2.235047 0.491222 3.283444 2.161967 0.592036 3.266809 1.429901 0.113443 -1.486147 1.429905 0.113449 -1.486148 0.000001 -0.000000 0.000000 1.429901 0.113449 -1.486148 1.429977 0.113451 -1.486149 -0.000000 -0.000001 0.000000 0.000001 -0.000000 0.000000 1.048088 -18.845539 -12.514468 2.031458 -18.541382 -69.951109 -0.000007 -1.197603 0.000000 -31.245237 -2.232154 -4.012185 0.208255 3.632878 4.932605 12.196122 26.088831 16.853606 0.000002 -0.000004 -0.000003 0.661485 -0.016239 -10.773498 0.278359 1.786058 -17.715492 0.000000 0.000000 0.000002 0.008926 3.079584 -17.392728 0.268723 1.755619 -17.403670 -0.000002 0.000000 -0.000003 0.499089 4.579498 -20.856126 0.325326 1.926799 -19.164730 -0.000000 -0.000000 -0.000003 1.140431 6.049268 -26.395606 0.264238 1.741263 -17.256690 -0.000002 -0.000005 0.000000 -0.000001 0.000001 0.000000 -0.000001 0.000001 0.000000 -0.000001 0.000001 0.000000 0.000001 0.000001 0.000000 0.000001 0.000000 0.000000 0.000001 0.000001 0.000000 -0.000000 -0.000000 -0.000000 1.522908 15.459105 13.128929 11.856970 28.916989 56.919122 0.000010 7.700794 -0.000009 -22.793405 3.285688 3.393508 -1.606512 -0.426454 -3.522741 13.715578 -32.003685 -15.891559 -0.000002 -0.000002 0.000003 -0.148040 0.776414 10.948876 0.227880 -1.440428 17.979467 0.000002 -0.000000 -0.000002 -0.141033 -2.318139 16.513632 0.187942 -1.311020 16.315992 -0.000000 0.000001 0.000002 0.369187 -3.983006 22.294320 0.308102 -1.667367 20.936577 -0.000001 0.000002 0.000001 0.827071 -5.000192 29.554375 0.218175 -1.410126 17.588666 0.000002 0.000003 0.000001 -0.000000 0.000000 -0.000000 -0.000000 0.000000 -0.000001 -0.000000 0.000000 -0.000000 0.000003 0.000000 0.000000 0.000003 0.000000 0.000000 0.000003 0.000000 0.000000 0.000003 -0.000000 0.000000 0.000000 0.000001 0.000000 0.000000 0.000001 0.000000 0.000000 0.000001 0.000000 0.000000 0.000001 0.000000 0.000000 0.000001 0.000000 0.000000 0.000001 0.000000 0.000000 0.000001 0.000000 -0.000000 0.000000 0.000000 0.000000 -0.000000 -0.000000 
8.156567 94.702896 4.895644 -4.466732 -13.007185 0.366414 0.000000 -0.000000 -0.000000 -8.371661 11.193255 0.590107 20.045444 9.859395 0.789523 -6.964567 7.936832 -1.413035 0.000000 0.000000 -0.000000 0.000001 0.000000 0.000000 -8.610090 -9.750599 -11.990701 20.400469 -0.028915 -2.058638 -7.402531 -2.088681 10.048613 -0.000000 -0.000000 0.000000 0.000000 -0.000001 -0.000000 4.469752 0.943203 -5.119679 2.138481 0.510127 3.351233 2.064030 0.614547 3.334016 1.450544 0.113932 -1.538223 1.450555 0.113931 -1.538221 -0.000000 -0.000001 -0.000000 1.450541 0.113939 -1.538222 1.450546 0.113927 -1.538221 -0.000000 0.000000 0.000000 -0.000000 -0.000001 -0.000000 1.036664 -18.697011 -12.563867 2.319779 -18.675001 -69.966743 -0.000013 -1.287923 -0.000006 -31.419628 -2.162339 -4.133333 0.183633 3.590648 4.941040 12.191065 26.079105 16.856671 0.000001 -0.000003 -0.000005 0.637108 -0.047297 -10.672861 0.278240 1.785692 -17.711676 -0.000002 -0.000001 0.000001 0.001965 3.046207 -17.221120 0.268192 1.753905 -17.386093 -0.000001 -0.000001 -0.000001 0.492858 4.564055 -20.719577 0.323431 1.921377 -19.108719 0.000001 -0.000002 -0.000000 1.135325 6.040557 -26.352454 0.263792 1.739818 -17.241974 -0.000000 -0.000003 -0.000000 -0.000001 0.000001 0.000001 -0.000001 0.000001 0.000001 -0.000002 0.000001 0.000001 -0.000003 0.000000 0.000001 -0.000003 0.000000 0.000001 -0.000003 0.000000 0.000001 -0.000005 -0.000000 0.000000 1.526821 15.331505 13.110852 12.185970 28.697139 56.920744 0.000002 7.504607 -0.000001 -22.028335 2.389159 4.305131 -1.589349 -0.435593 -3.672258 13.693156 -31.612745 -15.908730 -0.000000 -0.000001 0.000001 -0.171405 1.034674 10.274512 0.227883 -1.440395 17.979083 -0.000001 -0.000000 -0.000001 -0.153997 -2.206426 15.737929 0.188624 -1.313313 16.345396 -0.000000 -0.000001 -0.000007 0.330474 -3.884547 21.705172 0.310125 -1.672670 21.006308 -0.000000 -0.000001 0.000001 0.831925 -5.008656 28.718517 0.218127 -1.409995 17.586998 0.000000 -0.000002 -0.000001 -0.000003 -0.000001 -0.000000 0.000000 -0.000001 0.000000 -0.000003 -0.000001 -0.000000 -0.000000 0.000000 0.000000 0.000000 0.000000 -0.000000 -0.000000 0.000000 0.000000 0.000000 -0.000000 0.000001 0.000001 -0.000001 -0.000000 0.000001 -0.000001 -0.000000 0.000001 -0.000001 -0.000000 0.000001 -0.000001 -0.000000 0.000001 -0.000001 -0.000000 0.000001 -0.000001 -0.000000 0.000001 -0.000001 -0.000000 -0.000000 0.000000 -0.000000 0.000000 -0.000000 -0.000000 
8.300714 94.785614 5.009572 -4.442279 -13.243125 0.107388 0.000000 0.000000 -0.000000 -8.300262 11.112240 0.583868 20.013632 9.874701 0.937518 -7.069256 8.238541 -1.310302 0.000000 -0.000001 0.000000 0.000001 -0.000000 0.000000 -7.870621 -10.001601 -11.929626 18.774035 0.317343 -1.850488 -6.554841 -2.015585 10.271478 0.000000 -0.000000 -0.000000 -0.000001 0.000000 -0.000000 4.449635 0.942914 -5.217809 2.062986 0.541621 3.402000 1.987302 0.649243 3.384577 1.448604 0.115462 -1.600216 1.448629 0.115467 -1.600223 0.000000 -0.000001 0.000000 1.448874 0.115482 -1.600234 1.448514 0.115482 -1.600229 -0.000000 -0.000000 0.000000 0.000000 -0.000001 0.000000 1.018274 -18.534707 -12.654295 2.650773 -18.980025 -69.847072 0.000010 -1.469375 0.000005 -31.715410 -2.159811 -4.323042 0.140995 3.519674 4.921906 12.172259 26.042825 16.867917 -0.000004 0.000000 -0.000004 0.594709 -0.097711 -10.527648 0.277913 1.784657 -17.701031 -0.000000 0.000001 0.000002 -0.015573 2.971036 -16.954252 0.266784 1.749423 -17.340269 0.000001 0.000000 -0.000000 0.472903 4.512639 -20.465718 0.319631 1.910368 -18.994918 0.000001 -0.000001 -0.000001 1.095404 5.991054 -26.246269 0.262704 1.736288 -17.205993 -0.000000 0.000000 0.000001 0.000001 0.000000 0.000001 0.000001 0.000000 0.000001 0.000000 0.000000 0.000001 -0.000001 0.000000 -0.000001 -0.000001 0.000000 -0.000001 -0.000001 0.000000 -0.000001 -0.000003 0.000000 -0.000001 1.528764 15.251568 13.102019 12.483982 28.422922 56.874248 -0.000004 7.351173 0.000008 -21.504345 1.553889 5.082439 -1.567726 -0.458196 -3.799924 13.532295 -31.314160 -15.946584 0.000001 -0.000002 -0.000003 -0.171066 1.179076 9.830772 0.227853 -1.440322 17.978036 -0.000000 0.000001 0.000001 -0.153150 -2.184310 15.460166 0.191003 -1.321408 16.448996 0.000000 -0.000000 -0.000001 0.276288 -3.744061 21.340865 0.310558 -1.673781 21.020927 0.000000 0.000001 0.000002 0.832749 -5.032874 28.130971 0.218138 -1.410028 17.587379 0.000002 0.000001 0.000001 -0.000001 -0.000001 -0.000000 -0.000001 -0.000001 -0.000001 -0.000001 -0.000001 -0.000000 0.000002 0.000000 -0.000000 0.000002 0.000000 -0.000000 0.000002 0.000000 -0.000000 0.000002 -0.000000 -0.000000 -0.000000 0.000000 0.000000 -0.000000 0.000000 0.000000 -0.000000 0.000000 0.000000 -0.000000 0.000000 0.000000 -0.000000 0.000000 0.000000 -0.000000 0.000000 0.000000 -0.000000 0.000000 0.000000 -0.000000 -0.000001 0.000000 0.000000 0.000000 -0.000000 
